{
	"asset":{
		"generator":"Khronos glTF Blender I/O v4.0.44",
		"version":"2.0"
	},
	"extensionsUsed":[
		"KHR_materials_specular",
		"KHR_materials_ior"
	],
	"scene":0,
	"scenes":[
		{
			"name":"Scene",
			"nodes":[
				0,
				1,
				2,
				7
			]
		}
	],
	"nodes":[
		{
			"name":"\u30a8\u30f3\u30d7\u30c6\u30a3",
			"rotation":[
				0.70710688829422,
				0,
				0,
				0.7071066498756409
			],
			"translation":[
				-0.9923228025436401,
				0.5040368437767029,
				0
			]
		},
		{
			"name":"\u5e73\u9762.001",
			"rotation":[
				0.7071068286895752,
				0,
				0,
				0.7071068286895752
			]
		},
		{
			"name":"\u5e73\u9762.002",
			"rotation":[
				0.7071068286895752,
				0,
				0,
				0.7071068286895752
			]
		},
		{
			"name":"\u30dc\u30fc\u30f3.002",
			"rotation":[
				0,
				1.1920927533992653e-07,
				0,
				1
			],
			"scale":[
				1,
				0.9999999403953552,
				1
			],
			"translation":[
				0,
				0.36835962533950806,
				0
			]
		},
		{
			"children":[
				3
			],
			"name":"\u30dc\u30fc\u30f3.001",
			"translation":[
				0,
				0.31740516424179077,
				0
			]
		},
		{
			"children":[
				4
			],
			"name":"\u30dc\u30fc\u30f3",
			"translation":[
				-0.0005546174943447113,
				0,
				-0.020716965198516846
			]
		},
		{
			"mesh":0,
			"name":"\u5e73\u9762",
			"skin":0
		},
		{
			"children":[
				6,
				5
			],
			"name":"\u30a2\u30fc\u30de\u30c1\u30e5\u30a2",
			"translation":[
				0,
				-0.43419045209884644,
				0
			]
		}
	],
	"materials":[
		{
			"doubleSided":true,
			"extensions":{
				"KHR_materials_specular":{
					"specularColorFactor":[
						2.0,
						2.0,
						2.0
					]
				},
				"KHR_materials_ior":{
					"ior":1.4500000476837158
				}
			},
			"name":"\u30de\u30c6\u30ea\u30a2\u30eb",
			"pbrMetallicRoughness":{
				"baseColorFactor":[
					1,
					0.3052271902561188,
					0,
					1
				],
				"metallicFactor":0
			}
		},
		{
			"doubleSided":true,
			"extensions":{
				"KHR_materials_specular":{
					"specularFactor":0
				},
				"KHR_materials_ior":{
					"ior":1.4500000476837158
				}
			},
			"name":"\u30de\u30c6\u30ea\u30a2\u30eb.001",
			"pbrMetallicRoughness":{
				"baseColorFactor":[
					0.5574182271957397,
					1,
					0.7604906558990479,
					1
				],
				"metallicFactor":0,
				"roughnessFactor":0.5
			}
		},
		{
			"doubleSided":true,
			"extensions":{
				"KHR_materials_specular":{
					"specularFactor":0
				},
				"KHR_materials_ior":{
					"ior":1.4500000476837158
				}
			},
			"name":"\u30de\u30c6\u30ea\u30a2\u30eb.002",
			"pbrMetallicRoughness":{
				"metallicFactor":0,
				"roughnessFactor":0.5
			}
		}
	],
	"meshes":[
		{
			"name":"\u5e73\u9762",
			"primitives":[
				{
					"attributes":{
						"POSITION":0,
						"NORMAL":1,
						"TEXCOORD_0":2,
						"JOINTS_0":3,
						"WEIGHTS_0":4
					},
					"indices":5,
					"material":0
				},
				{
					"attributes":{
						"POSITION":6,
						"NORMAL":7,
						"TEXCOORD_0":8,
						"JOINTS_0":9,
						"WEIGHTS_0":10
					},
					"indices":11,
					"material":1
				},
				{
					"attributes":{
						"POSITION":12,
						"NORMAL":13,
						"TEXCOORD_0":14,
						"JOINTS_0":15,
						"WEIGHTS_0":16
					},
					"indices":17,
					"material":2
				}
			]
		}
	],
	"skins":[
		{
			"inverseBindMatrices":18,
			"joints":[
				5,
				4,
				3
			],
			"name":"\u30a2\u30fc\u30de\u30c1\u30e5\u30a2"
		}
	],
	"accessors":[
		{
			"bufferView":0,
			"componentType":5126,
			"count":351,
			"max":[
				0.6779847145080566,
				0.6409653425216675,
				0.4632360637187958
			],
			"min":[
				-0.6001487970352173,
				-0.4614889621734619,
				-0.6224526166915894
			],
			"type":"VEC3"
		},
		{
			"bufferView":1,
			"componentType":5126,
			"count":351,
			"type":"VEC3"
		},
		{
			"bufferView":2,
			"componentType":5126,
			"count":351,
			"type":"VEC2"
		},
		{
			"bufferView":3,
			"componentType":5121,
			"count":351,
			"type":"VEC4"
		},
		{
			"bufferView":4,
			"componentType":5126,
			"count":351,
			"type":"VEC4"
		},
		{
			"bufferView":5,
			"componentType":5123,
			"count":1968,
			"type":"SCALAR"
		},
		{
			"bufferView":6,
			"componentType":5126,
			"count":92,
			"max":[
				0.6609187126159668,
				0.6310299634933472,
				0.4293888807296753
			],
			"min":[
				-0.6001487970352173,
				-0.11183077096939087,
				-0.06751678884029388
			],
			"type":"VEC3"
		},
		{
			"bufferView":7,
			"componentType":5126,
			"count":92,
			"type":"VEC3"
		},
		{
			"bufferView":8,
			"componentType":5126,
			"count":92,
			"type":"VEC2"
		},
		{
			"bufferView":9,
			"componentType":5121,
			"count":92,
			"type":"VEC4"
		},
		{
			"bufferView":10,
			"componentType":5126,
			"count":92,
			"type":"VEC4"
		},
		{
			"bufferView":11,
			"componentType":5123,
			"count":276,
			"type":"SCALAR"
		},
		{
			"bufferView":12,
			"componentType":5126,
			"count":140,
			"max":[
				0.595221757888794,
				0.6039487719535828,
				0.397540807723999
			],
			"min":[
				-0.5818809270858765,
				-0.0527818538248539,
				-0.02189367264509201
			],
			"type":"VEC3"
		},
		{
			"bufferView":13,
			"componentType":5126,
			"count":140,
			"type":"VEC3"
		},
		{
			"bufferView":14,
			"componentType":5126,
			"count":140,
			"type":"VEC2"
		},
		{
			"bufferView":15,
			"componentType":5121,
			"count":140,
			"type":"VEC4"
		},
		{
			"bufferView":16,
			"componentType":5126,
			"count":140,
			"type":"VEC4"
		},
		{
			"bufferView":17,
			"componentType":5123,
			"count":690,
			"type":"SCALAR"
		},
		{
			"bufferView":18,
			"componentType":5126,
			"count":3,
			"type":"MAT4"
		}
	],
	"bufferViews":[
		{
			"buffer":0,
			"byteLength":4212,
			"byteOffset":0,
			"target":34962
		},
		{
			"buffer":0,
			"byteLength":4212,
			"byteOffset":4212,
			"target":34962
		},
		{
			"buffer":0,
			"byteLength":2808,
			"byteOffset":8424,
			"target":34962
		},
		{
			"buffer":0,
			"byteLength":1404,
			"byteOffset":11232,
			"target":34962
		},
		{
			"buffer":0,
			"byteLength":5616,
			"byteOffset":12636,
			"target":34962
		},
		{
			"buffer":0,
			"byteLength":3936,
			"byteOffset":18252,
			"target":34963
		},
		{
			"buffer":0,
			"byteLength":1104,
			"byteOffset":22188,
			"target":34962
		},
		{
			"buffer":0,
			"byteLength":1104,
			"byteOffset":23292,
			"target":34962
		},
		{
			"buffer":0,
			"byteLength":736,
			"byteOffset":24396,
			"target":34962
		},
		{
			"buffer":0,
			"byteLength":368,
			"byteOffset":25132,
			"target":34962
		},
		{
			"buffer":0,
			"byteLength":1472,
			"byteOffset":25500,
			"target":34962
		},
		{
			"buffer":0,
			"byteLength":552,
			"byteOffset":26972,
			"target":34963
		},
		{
			"buffer":0,
			"byteLength":1680,
			"byteOffset":27524,
			"target":34962
		},
		{
			"buffer":0,
			"byteLength":1680,
			"byteOffset":29204,
			"target":34962
		},
		{
			"buffer":0,
			"byteLength":1120,
			"byteOffset":30884,
			"target":34962
		},
		{
			"buffer":0,
			"byteLength":560,
			"byteOffset":32004,
			"target":34962
		},
		{
			"buffer":0,
			"byteLength":2240,
			"byteOffset":32564,
			"target":34962
		},
		{
			"buffer":0,
			"byteLength":1380,
			"byteOffset":34804,
			"target":34963
		},
		{
			"buffer":0,
			"byteLength":192,
			"byteOffset":36184
		}
	],
	"buffers":[
		{
			"byteLength":36376,
			"uri":"4dP.bin"
		}
	]
}
